Coordinates
version=1
nRows=13
nColumns=38
inDegrees=yes

Units are S.I. units (second, meters, Newtons, ...)
Angles are in degrees.

endheader
time	pelvis_tilt	pelvis_list	pelvis_rotation	pelvis_tx	pelvis_ty	pelvis_tz	hip_flexion_r	hip_adduction_r	hip_rotation_r	knee_angle_r	ankle_angle_r	subtalar_angle_r	mtp_angle_r	hip_flexion_l	hip_adduction_l	hip_rotation_l	knee_angle_l	ankle_angle_l	subtalar_angle_l	mtp_angle_l	lumbar_extension	lumbar_bending	lumbar_rotation	arm_flex_r	arm_add_r	arm_rot_r	elbow_flex_r	pro_sup_r	wrist_flex_r	wrist_dev_r	arm_flex_l	arm_add_l	arm_rot_l	elbow_flex_l	pro_sup_l	wrist_flex_l	wrist_dev_l
      0.00000000	     -2.75050824	     -9.57994565	     85.14184786	     -0.21143474	      1.14095067	     -0.37969413	     33.43914202	     -2.39532971	     -6.22350094	    -25.20498389	     -5.33746096	      0.00000000	      0.00000000	    -19.09103807	      6.41867457	      1.65811176	    -12.59117196	    -18.05115507	      0.00000000	      0.00000000	    -11.70442405	     -2.69337870	    -12.71306473	      0.00000000	      0.00000000	      0.00000000	     90.00000000	     90.00000000	      0.00000000	      0.00000000	      0.00000000	      0.00000000	      0.00000000	     90.00000000	     90.00000000	      0.00000000	      0.00000000
      0.00500000	     -3.07653101	     -9.56562902	     84.86644143	     -0.21084247	      1.14040438	     -0.38024870	     32.98018422	     -2.25684292	     -5.51370468	    -22.50110657	     -5.67892804	      0.00000000	      0.00000000	    -19.03385940	      7.00435256	      2.43817458	    -14.25428368	    -16.82752295	      0.00000000	      0.00000000	    -11.66601608	     -2.98996964	    -12.59174499	      0.00000000	      0.00000000	      0.00000000	     90.00000000	     90.00000000	      0.00000000	      0.00000000	      0.00000000	      0.00000000	      0.00000000	     90.00000000	     90.00000000	      0.00000000	      0.00000000
      0.01000000	     -3.41170997	     -9.49553289	     84.65362551	     -0.21040407	      1.13976551	     -0.38079005	     32.51356413	     -2.21221904	     -4.84871480	    -20.06419152	     -5.98591829	      0.00000000	      0.00000000	    -18.97133471	      7.60089892	      3.09427904	    -16.01467950	    -15.94425712	      0.00000000	      0.00000000	    -11.68838459	     -3.27545895	    -12.49858998	      0.00000000	      0.00000000	      0.00000000	     90.00000000	     90.00000000	      0.00000000	      0.00000000	      0.00000000	      0.00000000	      0.00000000	     90.00000000	     90.00000000	      0.00000000	      0.00000000
      0.01500000	     -3.74848631	     -9.37566162	     84.49855308	     -0.21011251	      1.13903060	     -0.38130891	     32.04465222	     -2.24717679	     -4.22526679	    -17.89698679	     -6.26326775	      0.00000000	      0.00000000	    -18.89180902	      8.20025549	      3.62603042	    -17.88096880	    -15.38699868	      0.00000000	      0.00000000	    -11.76752456	     -3.54450454	    -12.42988091	      0.00000000	      0.00000000	      0.00000000	     90.00000000	     90.00000000	      0.00000000	      0.00000000	      0.00000000	      0.00000000	      0.00000000	     90.00000000	     90.00000000	      0.00000000	      0.00000000
      0.02000000	     -4.07765513	     -9.21400348	     84.39483693	     -0.20996607	      1.13819784	     -0.38179454	     31.58027610	     -2.34313180	     -3.64033541	    -16.00177715	     -6.51776424	      0.00000000	      0.00000000	    -18.78023056	      8.79147092	      4.03269105	    -19.86356712	    -15.13443544	      0.00000000	      0.00000000	    -11.89787196	     -3.79018256	    -12.38059502	      0.00000000	      0.00000000	      0.00000000	     90.00000000	     90.00000000	      0.00000000	      0.00000000	      0.00000000	      0.00000000	      0.00000000	     90.00000000	     90.00000000	      0.00000000	      0.00000000
      0.02500000	     -4.38970950	     -9.01974353	     84.33523126	     -0.20996888	      1.13726671	     -0.38223565	     31.12787586	     -2.47935693	     -3.09222966	    -14.37916264	     -6.75762595	      0.00000000	      0.00000000	    -18.61997453	      9.36165185	      4.31323698	    -21.97286121	    -15.15866699	      0.00000000	      0.00000000	    -12.07264708	     -4.00483781	    -12.34482949	      0.00000000	      0.00000000	      0.00000000	     90.00000000	     90.00000000	      0.00000000	      0.00000000	      0.00000000	      0.00000000	      0.00000000	     90.00000000	     90.00000000	      0.00000000	      0.00000000
      0.03000000	     -4.67569139	     -8.80255076	     84.31225519	     -0.21012434	      1.13623375	     -0.38261921	     30.69486479	     -2.63492342	     -2.58117461	    -13.02722912	     -6.99176686	      0.00000000	      0.00000000	    -18.39449592	      9.89686713	      4.46664212	    -24.21764402	    -15.42572893	      0.00000000	      0.00000000	    -12.28418537	     -4.18086876	    -12.31618524	      0.00000000	      0.00000000	      0.00000000	     90.00000000	     90.00000000	      0.00000000	      0.00000000	      0.00000000	      0.00000000	      0.00000000	     90.00000000	     90.00000000	      0.00000000	      0.00000000
      0.03500000	     -4.92759649	     -8.57201711	     84.31871045	     -0.21042499	      1.13508578	     -0.38292735	     30.28824379	     -2.79032078	     -2.10928598	    -11.94127891	     -7.22874661	      0.00000000	      0.00000000	    -18.08883004	     10.38289557	      4.49240630	    -26.60391180	    -15.89638481	      0.00000000	      0.00000000	    -12.52426407	     -4.31140976	    -12.28809812	      0.00000000	      0.00000000	      0.00000000	     90.00000000	     90.00000000	      0.00000000	      0.00000000	      0.00000000	      0.00000000	      0.00000000	     90.00000000	     90.00000000	      0.00000000	      0.00000000
      0.04000000	     -5.13850830	     -8.33727197	     84.34807138	     -0.21084556	      1.13379507	     -0.38313455	     29.91448672	     -2.92863600	     -1.67998376	    -11.11420176	     -7.47536070	      0.00000000	      0.00000000	    -17.69092579	     10.80575704	      4.39126740	    -29.13403193	    -16.52724393	      0.00000000	      0.00000000	    -12.78441323	     -4.39088485	    -12.25409688	      0.00000000	      0.00000000	      0.00000000	     90.00000000	     90.00000000	      0.00000000	      0.00000000	      0.00000000	      0.00000000	      0.00000000	     90.00000000	     90.00000000	      0.00000000	      0.00000000
      0.04500000	     -5.30261673	     -8.10667717	     84.39476954	     -0.21134316	      1.13232037	     -0.38320874	     29.57967673	     -3.03619278	     -1.29702828	    -10.53744766	     -7.73492680	      0.00000000	      0.00000000	    -17.19269763	     11.15210887	      4.16598123	    -31.80620772	    -17.27218843	      0.00000000	      0.00000000	    -13.05619750	     -4.41541853	    -12.20797291	      0.00000000	      0.00000000	      0.00000000	     90.00000000	     90.00000000	      0.00000000	      0.00000000	      0.00000000	      0.00000000	      0.00000000	     90.00000000	     90.00000000	      0.00000000	      0.00000000
      0.05000000	     -5.41525326	     -7.88751586	     84.45435474	     -0.21186411	      1.13061333	     -0.38311818	     29.28980724	     -3.10264522	     -0.96344671	    -10.20245063	     -8.00543581	      0.00000000	      0.00000000	    -16.59066684	     11.40963111	      3.82203257	    -34.61417057	    -18.08404240	      0.00000000	      0.00000000	    -13.33148760	     -4.38307856	    -12.14387208	      0.00000000	      0.00000000	      0.00000000	     90.00000000	     90.00000000	      0.00000000	      0.00000000	      0.00000000	      0.00000000	      0.00000000	     90.00000000	     90.00000000	      0.00000000	      0.00000000
      0.05500000	     -5.47303966	     -7.68568364	     84.52345294	     -0.21235376	      1.12862617	     -0.38284255	     29.05108422	     -3.12064278	     -0.68061941	    -10.10226927	     -8.27783218	      0.00000000	      0.00000000	    -15.88610734	     11.56746778	      3.36814864	    -37.54708510	    -18.91639624	      0.00000000	      0.00000000	    -13.60277030	     -4.29392389	    -12.05634141	      0.00000000	      0.00000000	      0.00000000	     90.00000000	     90.00000000	      0.00000000	      0.00000000	      0.00000000	      0.00000000	      0.00000000	     90.00000000	     90.00000000	      0.00000000	      0.00000000
      0.06000000	     -5.47412968	     -7.50547365	     84.59947922	     -0.21276555	      1.12631724	     -0.38238360	     28.87002368	     -3.08525725	     -0.44772105	    -10.23315876	     -8.53474613	      0.00000000	      0.00000000	    -15.08466478	     11.61676471	      2.81650962	    -40.58969084	    -19.72549207	      0.00000000	      0.00000000	    -13.86353571	     -4.14986362	    -11.94036334	      0.00000000	      0.00000000	      0.00000000	     90.00000000	     90.00000000	      0.00000000	      0.00000000	      0.00000000	      0.00000000	      0.00000000	     90.00000000	     90.00000000	      0.00000000	      0.00000000
